<svg xmlns="http://www.w3.org/2000/svg" viewBox="0 0 24 24" fill="#6F4E37">
  <path d="M6 3C6 2.5 6.5 1 8 1C9.5 1 9.5 2 10 2.5C10.5 3 11 3 11.5 2.5C12 2 12 1 13.5 1C15 1 15.5 2.5 15.5 3" stroke="#6F4E37" stroke-width="1.5" fill="none" stroke-linecap="round"/>
  <path d="M2 21V19H20V21H2ZM4 18C3.45 18 2.979 17.804 2.587 17.412C2.195 17.02 1.999 16.549 2 16V6C2 5.45 2.196 4.979 2.588 4.587C2.98 4.195 3.451 3.999 4 4H18C18.55 4 19.021 4.196 19.413 4.588C19.805 4.98 20.001 5.451 20 6V8H22V12H20V16C20 16.55 19.804 17.021 19.412 17.413C19.02 17.805 18.549 18.001 18 18H4ZM4 16H18V6H4V16Z"/>
</svg>
